<svg width="336" height="336" viewBox="0 0 336 336" fill="none" xmlns="http://www.w3.org/2000/svg">
<path d="M81.6353 190.151C81.6353 143.951 119.093 106.462 165.324 106.462C211.493 106.462 248.92 143.858 249.013 190.026C289.675 138.973 227.111 8.30643 164.64 12.8175C166.849 43.462 159.258 65.6442 152.911 81.9464C140 61.382 127.493 48.5331 127.493 48.5331C127.493 48.5331 68.8798 92.9909 57.9287 155.275C43.5864 237.035 139.813 323.306 165.324 323.306C148.96 323.306 81.6353 236.382 81.6353 190.151Z" fill="url(#paint0_linear_728_11277)"/>
<path d="M202.533 205.582L214.169 197.586L225.773 205.582L221.76 192.049L232.96 183.462L218.867 183.12L214.169 169.804L209.471 183.12L195.347 183.462L206.547 192.049L202.533 205.582Z" fill="#D14A10"/>
<path d="M115.547 205.551C125.409 205.551 133.435 197.555 133.435 187.662C133.435 177.8 125.44 169.773 115.547 169.773C105.684 169.773 97.6577 177.769 97.6577 187.662C97.6577 197.555 105.684 205.551 115.547 205.551Z" fill="#B60D39"/>
<path d="M164.391 205.551C174.253 205.551 182.28 197.555 182.28 187.662C182.28 177.8 174.284 169.773 164.391 169.773C154.529 169.773 146.502 177.769 146.502 187.662C146.502 197.555 154.529 205.551 164.391 205.551Z" fill="#C42E23"/>
<defs>
<linearGradient id="paint0_linear_728_11277" x1="78.0213" y1="253.401" x2="255.098" y2="76.3238" gradientUnits="userSpaceOnUse">
<stop offset="0.0270054" stop-color="#B00042"/>
<stop offset="0.3572" stop-color="#C12628"/>
<stop offset="0.7828" stop-color="#D4500B"/>
<stop offset="1" stop-color="#DB6100"/>
</linearGradient>
</defs>
</svg>
