<?xml version="1.0" encoding="utf-8"?>
<!-- Generator: Adobe Illustrator 23.0.0, SVG Export Plug-In . SVG Version: 6.00 Build 0)  -->
<svg version="1.1" id="Capa_1" xmlns="http://www.w3.org/2000/svg" xmlns:xlink="http://www.w3.org/1999/xlink" x="0px" y="0px"
	 viewBox="0 0 100 100" style="enable-background:new 0 0 100 100;" xml:space="preserve">
<g>
	<path d="M50,99.5C22.71,99.5,0.5,77.29,0.5,50C0.5,22.71,22.71,0.5,50,0.5c27.29,0,49.5,22.21,49.5,49.5
		C99.5,77.29,77.29,99.5,50,99.5z M50,4.5C24.91,4.5,4.5,24.91,4.5,50S24.91,95.5,50,95.5S95.5,75.09,95.5,50S75.09,4.5,50,4.5z"/>
</g>
<path d="M47.27,52.81c-0.05,5.35-4.47,9.65-9.86,9.59c-5.36-0.06-9.69-4.43-9.65-9.74c0.05-5.39,4.5-9.8,9.96-9.64
	C43.41,43.19,47.32,47.74,47.27,52.81z M37.53,44.96c-4.28,0-7.81,3.48-7.84,7.73c-0.03,4.26,3.51,7.8,7.82,7.8
	c4.31,0.01,7.84-3.5,7.83-7.78C45.34,48.47,41.8,44.96,37.53,44.96z"/>
<path d="M68.55,52.72c0,5.37-4.35,9.69-9.74,9.68c-5.38,0-9.78-4.37-9.76-9.69C49.06,47.4,53.48,43,58.81,43
	C64.17,43,68.55,47.37,68.55,52.72z M58.8,44.96c-4.28,0-7.81,3.5-7.82,7.74c-0.01,4.28,3.51,7.78,7.84,7.78
	c4.29,0,7.8-3.47,7.81-7.74C66.64,48.46,63.12,44.96,58.8,44.96z"/>
<path d="M15.25,50.15c0.7-0.35,1.25-0.67,1.83-0.9c2.62-1.04,5.55-0.4,7.5,1.6c1.88,1.94,2.44,4.88,1.38,7.36
	c-1.1,2.59-3.56,4.23-6.41,4.18c-2.87-0.05-4.93-1.44-6.21-3.99c-0.37-0.73-0.3-0.96,0.26-1.23c0.83-0.39,1.09-0.31,1.45,0.44
	c1.01,2.07,3.21,3.26,5.32,2.88c2.11-0.38,3.74-1.91,4.13-3.89c0.41-2.04-0.45-4.05-2.2-5.16c-1.8-1.14-3.92-1.05-5.71,0.28
	c-0.48,0.36-0.92,0.81-1.32,1.27c-0.36,0.42-0.75,0.36-1.19,0.24c-0.44-0.12-0.57-0.4-0.57-0.83c0.01-2.71,0-5.42,0.01-8.13
	c0-0.76,0.22-0.98,0.98-0.99c3.13-0.01,6.25,0.01,9.38-0.01c0.7,0,0.79,0.39,0.78,0.93c-0.01,0.77-0.14,0.94-0.82,0.94
	c-2.62,0-5.25,0.02-7.87-0.01c-0.57-0.01-0.77,0.15-0.75,0.74C15.28,47.25,15.25,48.65,15.25,50.15z"/>
<path d="M71,47.49c0.21-2.01,1.39-3.41,3.3-4.12c1.94-0.73,3.7-0.25,5.15,1.13c1.48,1.42,1.9,3.21,1.25,5.18
	c-0.67,2.01-2.79,3.48-4.82,3.43c-0.87-0.02-1.05-0.25-0.92-1.08c0.07-0.48,0.32-0.66,0.8-0.66c1.25-0.01,2.25-0.53,2.92-1.6
	c0.71-1.14,0.77-2.32,0.02-3.46c-0.77-1.16-1.9-1.68-3.28-1.45c-1.36,0.23-2.21,1.11-2.59,2.41c-0.13,0.45-0.16,0.95-0.16,1.43
	c-0.02,2.62-0.01,5.25-0.01,7.87c0,0.77-0.13,0.9-0.85,0.91c-0.76,0.01-0.9-0.14-0.91-0.92c-0.01-1.44,0-4.33,0-4.33
	S70.83,49.05,71,47.49z"/>
<path d="M86,48.03c-1.15-1.11-2.26-2.19-3.39-3.25c-0.43-0.4-0.54-0.76-0.08-1.21c0.49-0.48,0.73-0.5,1.25,0.03
	c1.08,1.11,2.15,2.22,3.29,3.4c0.64-0.63,1.18-1.16,1.72-1.69c0.62-0.61,1.26-1.22,1.86-1.84c0.47-0.48,0.82-0.2,1.17,0.14
	c0.36,0.35,0.4,0.66,0,1.04c-0.97,0.92-1.9,1.87-2.84,2.81c-0.2,0.2-0.39,0.4-0.63,0.66c1.13,1.12,2.23,2.21,3.33,3.3
	c0.57,0.56,0.59,0.75,0.11,1.23c-0.46,0.46-0.77,0.46-1.27-0.05c-1.08-1.11-2.15-2.23-3.27-3.41c-0.71,0.71-1.3,1.28-1.89,1.86
	c-0.54,0.54-1.09,1.07-1.61,1.63c-0.41,0.44-0.78,0.38-1.17-0.01c-0.39-0.39-0.45-0.73-0.01-1.16C83.67,50.41,84.76,49.28,86,48.03z
	"/>
</svg>
