<?xml version="1.0" encoding="utf-8"?>
<!-- Generator: Adobe Illustrator 23.0.0, SVG Export Plug-In . SVG Version: 6.00 Build 0)  -->
<svg version="1.1" id="Capa_1" xmlns="http://www.w3.org/2000/svg" xmlns:xlink="http://www.w3.org/1999/xlink" x="0px" y="0px"
	 viewBox="0 0 100 100" style="enable-background:new 0 0 100 100;" xml:space="preserve">
<path d="M50.36,56.14c-0.21-1.86-0.79-3.64-2.18-4.96c-1.15-1.09-2.49-1.98-3.74-2.96c0.12-0.09,0.4-0.32,0.7-0.52
	c2.22-1.52,3.58-3.63,3.94-6.28c0.54-4-0.23-7.66-3.46-10.38c-2.3-1.93-5.17-2.63-8.08-2.69c-7.13-0.14-14.27-0.1-21.4-0.13
	c-1.24-0.01-1.25,0-1.25,1.26c0,13.76,0,27.52-0.02,41.27c0,0.78,0.23,1.03,1,1.02c2.86-0.04,5.72,0.02,8.58-0.03
	c4.92-0.08,9.85-0.05,14.76-0.38c3.28-0.22,6.12-1.75,8.35-4.24C50.43,63.95,50.82,60.14,50.36,56.14z M25.04,35.79
	c0,0,7.65-0.02,11.37,0.17c2.84,0.15,4.32,2.04,4.22,4.92c-0.09,2.54-1.88,4.38-4.53,4.44c-3.53,0.08-11.06,0.05-11.06,0.05V35.79z
	 M36.97,63.99c-1.31,0.18-2.65,0.16-3.98,0.17c-2.41,0.02-4.81,0-7.22,0c-0.42,0-0.78,0.01-0.77-0.6c0.02-3.51,0-10.96,0-10.96
	l3.91,0c0,0,5.16-0.04,7.73,0.11c3.14,0.18,5.06,2.38,5.15,5.64C41.85,61.27,39.93,63.59,36.97,63.99z"/>
<path d="M84.65,61.49c-0.53,1.04-0.94,2.16-1.62,3.1c-3.54,4.94-8.32,7.57-14.47,6.98C62.6,71,58.09,68,55.63,62.45
	c-3.09-6.97-2.19-13.55,2.69-19.43c2.43-2.93,5.81-4.16,9.51-4.47c2.95-0.25,5.93-0.13,8.67,1.13c4.54,2.1,7.16,5.81,8.14,10.62
	c0.39,1.92,0.31,3.94,0.47,5.91c0.06,0.77-0.22,1.01-1.01,1.01c-6.79-0.03-13.59-0.01-20.38-0.01c-1.33,0-1.33,0-1.17,1.28
	c0.41,3.25,2.12,5.38,4.92,6.13c3.37,0.9,6.26-0.02,8.23-2.67c0.38-0.52,0.78-0.7,1.41-0.7c2.43,0.03,4.86,0.01,7.29,0.01
	C84.48,61.34,84.57,61.41,84.65,61.49z M76.52,51.69c0.16-3.69-2.57-6.24-5.78-6.42c-4.75-0.26-8.28,2.47-8.16,6.42
	C67.2,51.69,71.83,51.69,76.52,51.69z"/>
<path d="M78.26,34.47c-2.27,0-4.39,0-6.5,0c-3.42,0-6.85-0.03-10.27,0c-0.71,0.01-0.95-0.23-0.92-0.92c0.05-0.93,0.05-1.87,0.01-2.8
	c-0.03-0.64,0.22-0.82,0.84-0.82c3.96,0.02,7.93,0.01,11.89,0c1.36,0,2.72,0.02,4.08-0.02c0.63-0.02,0.93,0.15,0.9,0.85
	C78.22,31.95,78.26,33.14,78.26,34.47z"/>
<g>
	<path d="M50,99.5C22.71,99.5,0.5,77.29,0.5,50C0.5,22.71,22.71,0.5,50,0.5c27.29,0,49.5,22.21,49.5,49.5
		C99.5,77.29,77.29,99.5,50,99.5z M50,4.5C24.91,4.5,4.5,24.91,4.5,50S24.91,95.5,50,95.5S95.5,75.09,95.5,50S75.09,4.5,50,4.5z"/>
</g>
</svg>
