<?xml version="1.0" encoding="utf-8"?>
<!-- Generator: Adobe Illustrator 23.0.0, SVG Export Plug-In . SVG Version: 6.00 Build 0)  -->
<svg version="1.1" id="Capa_1" xmlns="http://www.w3.org/2000/svg" xmlns:xlink="http://www.w3.org/1999/xlink" x="0px" y="0px"
	 viewBox="0 0 100 100" style="enable-background:new 0 0 100 100;" xml:space="preserve">
<g>
	<path d="M50,99.5C22.71,99.5,0.5,77.29,0.5,50C0.5,22.71,22.71,0.5,50,0.5c27.29,0,49.5,22.21,49.5,49.5
		C99.5,77.29,77.29,99.5,50,99.5z M50,4.5C24.91,4.5,4.5,24.91,4.5,50S24.91,95.5,50,95.5S95.5,75.09,95.5,50S75.09,4.5,50,4.5z"/>
</g>
<path d="M48.88,24.18c4.19,0,8.39-0.18,12.57,0.04c8.7,0.45,13.9,5.14,14.37,13.82c0.45,8.21,0.35,16.49-0.15,24.69
	c-0.47,7.74-6,12.76-13.75,12.99c-8.03,0.23-16.08,0.24-24.11,0.03c-7.8-0.2-13.47-5.73-13.73-13.52c-0.27-8.13-0.26-16.28,0-24.4
	c0.25-7.77,5.93-13.23,13.7-13.57c3.69-0.16,7.4-0.03,11.1-0.03C48.88,24.2,48.88,24.19,48.88,24.18z M28.28,50.09
	c0.08,0,0.18,7.11,0.26,10.66c0.14,6.55,3.9,10.41,10.45,10.52c7.2,0.12,14.4,0.12,21.6-0.01c6.46-0.12,10.45-3.68,10.57-9.57
	c0.16-7.83,0.14-15.67,0-23.5c-0.09-5.06-3.33-8.6-8.33-9.16c-3.22-0.36-6.49-0.4-9.74-0.38c-5.32,0.03-10.65,0.03-15.96,0.41
	c-4.63,0.33-7.83,3.48-8.28,8.05C28.44,41.41,28.46,45.76,28.28,50.09z"/>
<path d="M49.86,63.35c-7.47-0.02-13.35-5.89-13.34-13.3c0.01-7.43,6.01-13.39,13.47-13.38c7.42,0.01,13.39,5.96,13.37,13.32
	C63.35,57.45,57.36,63.37,49.86,63.35z M49.88,41.3c-4.83,0.04-8.78,4-8.72,8.8c0.06,4.84,3.71,8.63,8.82,8.67
	c4.87,0.04,8.75-4.03,8.74-8.8C58.71,45.17,54.72,41.26,49.88,41.3z"/>
<path d="M60.84,36.11c-0.02-1.73,1.31-3.05,3.08-3.06c1.75-0.02,3.12,1.29,3.14,3.01c0.02,1.69-1.37,3.08-3.09,3.09
	C62.22,39.15,60.86,37.83,60.84,36.11z"/>
</svg>
