<?xml version="1.0" encoding="utf-8"?>
<!-- Generator: Adobe Illustrator 23.0.0, SVG Export Plug-In . SVG Version: 6.00 Build 0)  -->
<svg version="1.1" id="Capa_1" xmlns="http://www.w3.org/2000/svg" xmlns:xlink="http://www.w3.org/1999/xlink" x="0px" y="0px"
	 viewBox="0 0 100 100" style="enable-background:new 0 0 100 100;" xml:space="preserve">
<g>
	<path d="M50,99.5C22.71,99.5,0.5,77.29,0.5,50C0.5,22.71,22.71,0.5,50,0.5c27.29,0,49.5,22.21,49.5,49.5
		C99.5,77.29,77.29,99.5,50,99.5z M50,4.5C24.91,4.5,4.5,24.91,4.5,50S24.91,95.5,50,95.5S95.5,75.09,95.5,50S75.09,4.5,50,4.5z"/>
</g>
<g>
	<path d="M80.95,74.89c-4.23,0-8.25,0-12.54,0c-0.04-0.75-0.1-1.46-0.1-2.18c-0.02-6.49,0.08-12.98-0.06-19.46
		c-0.12-5.57-4.87-8.43-9.27-5.71c-2.35,1.45-3.29,3.71-3.28,6.44c0.02,6.08,0,12.15,0,18.23c0,0.81,0,1.63,0,2.59
		c-4.26,0-8.39,0-12.66,0c0-12.42,0-24.81,0-37.34c4.17,0,8.29,0,12.62,0c0,1.32,0,2.58,0,4c0.4-0.13,0.63-0.13,0.73-0.25
		c4.09-4.8,9.29-5.71,15.04-4.02c6.09,1.78,9.06,6.52,9.39,12.39C81.3,57.93,80.95,66.33,80.95,74.89z"/>
	<path d="M23.83,74.86c0-12.61,0-24.99,0-37.46c4.22,0,8.28,0,12.51,0c0,12.5,0,24.94,0,37.46C32.14,74.86,28.06,74.86,23.83,74.86z
		"/>
	<path d="M30.13,32.68c-4.16,0.01-7.04-2.64-7.09-6.51c-0.05-4.03,2.75-6.65,7.11-6.67c4.14-0.02,7.11,2.66,7.18,6.48
		C37.41,29.8,34.33,32.67,30.13,32.68z"/>
</g>
</svg>
