<?xml version="1.0" encoding="utf-8"?>
<!-- Generator: Adobe Illustrator 23.0.0, SVG Export Plug-In . SVG Version: 6.00 Build 0)  -->
<svg version="1.1" id="Capa_1" xmlns="http://www.w3.org/2000/svg" xmlns:xlink="http://www.w3.org/1999/xlink" x="0px" y="0px"
	 viewBox="0 0 100 100" style="enable-background:new 0 0 100 100;" xml:space="preserve">
<style type="text/css">
	.st0{fill:#707070;}
</style>
<g>
	<path class="st0" d="M12.5,0h75C94.4,0,100,5.6,100,12.5v0c0,6.9-5.6,12.5-12.5,12.5h-75C5.6,25,0,19.4,0,12.5v0
		C0,5.6,5.6,0,12.5,0z"/>
</g>
<g>
	<path class="st0" d="M12.5,37.5h75c6.9,0,12.5,5.6,12.5,12.5v0c0,6.9-5.6,12.5-12.5,12.5h-75C5.6,62.5,0,56.9,0,50v0
		C0,43.1,5.6,37.5,12.5,37.5z"/>
</g>
<g>
	<path class="st0" d="M12.5,75h75c6.9,0,12.5,5.6,12.5,12.5v0c0,6.9-5.6,12.5-12.5,12.5h-75C5.6,100,0,94.4,0,87.5v0
		C0,80.6,5.6,75,12.5,75z"/>
</g>
</svg>
