<svg width="100" height="100" viewBox="0 0 100 100" fill="none" xmlns="http://www.w3.org/2000/svg">
<g clip-path="url(#clip0_453_158)">
<path d="M50.3601 56.1401C50.1501 54.2801 49.5701 52.5001 48.1801 51.1801C47.0301 50.0901 45.6901 49.2001 44.4401 48.2201C44.5601 48.1301 44.8401 47.9001 45.1401 47.7001C47.3601 46.1801 48.7201 44.0701 49.0801 41.4201C49.6201 37.4201 48.8501 33.7601 45.6201 31.0401C43.3201 29.1101 40.4501 28.4101 37.5401 28.3501C30.4101 28.2101 23.2701 28.2501 16.1401 28.2201C14.9001 28.2101 14.8901 28.2201 14.8901 29.4801C14.8901 43.2401 14.8901 57.0001 14.8701 70.7501C14.8701 71.5301 15.1001 71.7801 15.8701 71.7701C18.7301 71.7301 21.5901 71.7901 24.4501 71.7401C29.3701 71.6601 34.3001 71.6901 39.2101 71.3601C42.4901 71.1401 45.3301 69.6101 47.5601 67.1201C50.4301 63.9501 50.8201 60.1401 50.3601 56.1401ZM25.0401 35.7901C25.0401 35.7901 32.6901 35.7701 36.4101 35.9601C39.2501 36.1101 40.7301 38.0001 40.6301 40.8801C40.5401 43.4201 38.7501 45.2601 36.1001 45.3201C32.5701 45.4001 25.0401 45.3701 25.0401 45.3701V35.7901ZM36.9701 63.9901C35.6601 64.1701 34.3201 64.1501 32.9901 64.1601C30.5801 64.1801 28.1801 64.1601 25.7701 64.1601C25.3501 64.1601 24.9901 64.1701 25.0001 63.5601C25.0201 60.0501 25.0001 52.6001 25.0001 52.6001H28.9101C28.9101 52.6001 34.0701 52.5601 36.6401 52.7101C39.7801 52.8901 41.7001 55.0901 41.7901 58.3501C41.8501 61.2701 39.9301 63.5901 36.9701 63.9901Z" fill="black"/>
<path d="M84.6498 61.4898C84.1198 62.5298 83.7098 63.6498 83.0298 64.5898C79.4898 69.5298 74.7098 72.1598 68.5598 71.5698C62.5998 70.9998 58.0898 67.9998 55.6298 62.4498C52.5398 55.4798 53.4398 48.8998 58.3198 43.0198C60.7498 40.0898 64.1298 38.8598 67.8298 38.5498C70.7798 38.2998 73.7598 38.4198 76.4998 39.6798C81.0398 41.7798 83.6598 45.4898 84.6398 50.2998C85.0298 52.2198 84.9498 54.2398 85.1098 56.2098C85.1698 56.9798 84.8898 57.2198 84.0998 57.2198C77.3098 57.1898 70.5098 57.2098 63.7198 57.2098C62.3898 57.2098 62.3898 57.2098 62.5498 58.4898C62.9598 61.7398 64.6698 63.8698 67.4698 64.6198C70.8398 65.5198 73.7298 64.5998 75.6998 61.9498C76.0798 61.4298 76.4798 61.2498 77.1098 61.2498C79.5398 61.2798 81.9698 61.2598 84.3998 61.2598C84.4798 61.3398 84.5698 61.4098 84.6498 61.4898ZM76.5198 51.6898C76.6798 47.9998 73.9498 45.4498 70.7398 45.2698C65.9898 45.0098 62.4598 47.7398 62.5798 51.6898C67.1998 51.6898 71.8298 51.6898 76.5198 51.6898Z" fill="black"/>
<path d="M78.2599 34.4702C75.9899 34.4702 73.8699 34.4702 71.7599 34.4702C68.3399 34.4702 64.9099 34.4402 61.4899 34.4702C60.7799 34.4802 60.5398 34.2402 60.5698 33.5502C60.6198 32.6202 60.6199 31.6802 60.5799 30.7502C60.5499 30.1102 60.7998 29.9302 61.4198 29.9302C65.3798 29.9502 69.3498 29.9402 73.3098 29.9302C74.6698 29.9302 76.0298 29.9502 77.3898 29.9102C78.0198 29.8902 78.3199 30.0602 78.2899 30.7602C78.2199 31.9502 78.2599 33.1402 78.2599 34.4702Z" fill="black"/>
<path d="M50 99.5C22.71 99.5 0.5 77.29 0.5 50C0.5 22.71 22.71 0.5 50 0.5C77.29 0.5 99.5 22.71 99.5 50C99.5 77.29 77.29 99.5 50 99.5ZM50 4.5C24.91 4.5 4.5 24.91 4.5 50C4.5 75.09 24.91 95.5 50 95.5C75.09 95.5 95.5 75.09 95.5 50C95.5 24.91 75.09 4.5 50 4.5Z" fill="black"/>
</g>
<defs>
<clipPath id="clip0_453_158">
<rect width="100" height="100" fill="white"/>
</clipPath>
</defs>
</svg>
