<svg width="100" height="100" viewBox="0 0 100 100" fill="none" xmlns="http://www.w3.org/2000/svg">
<g clip-path="url(#clip0_513_53)">
<mask id="mask0_513_53" style="mask-type:luminance" maskUnits="userSpaceOnUse" x="0" y="0" width="100" height="100">
<path d="M100 0H0V100H100V0Z" fill="white"/>
</mask>
<g mask="url(#mask0_513_53)">
<path d="M50 99.5C22.71 99.5 0.5 77.29 0.5 50C0.5 22.71 22.71 0.5 50 0.5C77.29 0.5 99.5 22.71 99.5 50C99.5 77.29 77.29 99.5 50 99.5ZM50 4.5C24.91 4.5 4.5 24.91 4.5 50C4.5 75.09 24.91 95.5 50 95.5C75.09 95.5 95.5 75.09 95.5 50C95.5 24.91 75.09 4.5 50 4.5Z" fill="black"/>
<path d="M75.6849 25H62.6577V35.62H75.6849V25Z" fill="black"/>
<path d="M37.1688 25H24V35.62H37.1688V25Z" fill="black"/>
<path d="M62.6568 45.957V55.7274C62.6568 60.825 61.524 64.6482 59.4 67.0554C57.276 69.4626 54.0192 70.737 49.9128 70.737C41.4168 70.737 37.1688 65.781 37.1688 55.7274V45.957H24V56.1522C24 64.365 26.2656 70.5954 30.7968 74.985C35.328 79.3746 41.7 81.6402 49.9128 81.6402C58.1256 81.6402 64.356 79.3746 69.0288 74.985C73.56 70.5954 75.8256 64.365 75.8256 56.1522V45.957H62.6568V45.957Z" fill="black"/>
</g>
</g>
<defs>
<clipPath id="clip0_513_53">
<rect width="100" height="100" fill="white"/>
</clipPath>
</defs>
</svg>
