<svg width="100" height="100" viewBox="0 0 100 100" fill="none" xmlns="http://www.w3.org/2000/svg">
<g clip-path="url(#clip0_453_164)">
<path d="M50 99.5C22.71 99.5 0.5 77.29 0.5 50C0.5 22.71 22.71 0.5 50 0.5C77.29 0.5 99.5 22.71 99.5 50C99.5 77.29 77.29 99.5 50 99.5ZM50 4.5C24.91 4.5 4.5 24.91 4.5 50C4.5 75.09 24.91 95.5 50 95.5C75.09 95.5 95.5 75.09 95.5 50C95.5 24.91 75.09 4.5 50 4.5Z" fill="black"/>
<path d="M74.0532 40.7305C74.0885 41.2418 74.0885 41.753 74.0885 42.2689C74.0885 57.9897 62.1206 76.1206 40.2369 76.1206V76.1112C33.7723 76.1206 27.4421 74.2689 22 70.7774C22.94 70.8905 23.8847 70.9471 24.8318 70.9494C30.189 70.9541 35.3932 69.1566 39.6079 65.8466C34.5168 65.75 30.0524 62.4306 28.4928 57.5845C30.2762 57.9285 32.1138 57.8578 33.8642 57.3796C28.3138 56.2582 24.3205 51.3815 24.3205 45.7179V45.5672C25.9744 46.4883 27.8261 46.9995 29.7202 47.0561C24.4925 43.5623 22.8811 36.6078 26.038 31.1704C32.0785 38.6032 40.9908 43.1218 50.558 43.6C49.5991 39.4678 50.909 35.1377 53.9999 32.2329C58.7918 27.7284 66.3283 27.9593 70.8327 32.7488C73.4972 32.2235 76.051 31.2458 78.388 29.8605C77.4998 32.6145 75.641 34.9539 73.1579 36.4405C75.5162 36.1625 77.8202 35.5311 79.99 34.5676C78.3927 36.9611 76.3808 39.0461 74.0532 40.7305Z" fill="black"/>
</g>
<defs>
<clipPath id="clip0_453_164">
<rect width="100" height="100" fill="white"/>
</clipPath>
</defs>
</svg>
