<svg width="100" height="100" viewBox="0 0 100 100" fill="none" xmlns="http://www.w3.org/2000/svg">
<g clip-path="url(#clip0_453_151)">
<path d="M50 99.5C22.71 99.5 0.5 77.29 0.5 50C0.5 22.71 22.71 0.5 50 0.5C77.29 0.5 99.5 22.71 99.5 50C99.5 77.29 77.29 99.5 50 99.5ZM50 4.5C24.91 4.5 4.5 24.91 4.5 50C4.5 75.09 24.91 95.5 50 95.5C75.09 95.5 95.5 75.09 95.5 50C95.5 24.91 75.09 4.5 50 4.5Z" fill="black"/>
<path d="M80.95 74.89C76.72 74.89 72.7 74.89 68.41 74.89C68.37 74.14 68.31 73.43 68.31 72.71C68.29 66.22 68.39 59.73 68.25 53.25C68.13 47.68 63.38 44.82 58.98 47.54C56.63 48.99 55.69 51.25 55.7 53.98C55.72 60.06 55.7 66.13 55.7 72.21C55.7 73.02 55.7 73.84 55.7 74.8C51.44 74.8 47.31 74.8 43.04 74.8C43.04 62.38 43.04 49.99 43.04 37.46C47.21 37.46 51.33 37.46 55.66 37.46C55.66 38.78 55.66 40.04 55.66 41.46C56.06 41.33 56.29 41.33 56.39 41.21C60.48 36.41 65.68 35.5 71.43 37.19C77.52 38.97 80.49 43.71 80.82 49.58C81.3 57.93 80.95 66.33 80.95 74.89Z" fill="black"/>
<path d="M23.8301 74.8599C23.8301 62.2499 23.8301 49.8699 23.8301 37.3999C28.0501 37.3999 32.1101 37.3999 36.3401 37.3999C36.3401 49.8999 36.3401 62.3399 36.3401 74.8599C32.1401 74.8599 28.0601 74.8599 23.8301 74.8599Z" fill="black"/>
<path d="M30.1302 32.6801C25.9702 32.6901 23.0902 30.0401 23.0402 26.1701C22.9902 22.1401 25.7902 19.5201 30.1502 19.5001C34.2902 19.4801 37.2602 22.1601 37.3302 25.9801C37.4102 29.8001 34.3302 32.6701 30.1302 32.6801Z" fill="black"/>
</g>
<defs>
<clipPath id="clip0_453_151">
<rect width="100" height="100" fill="white"/>
</clipPath>
</defs>
</svg>
