<svg width="1200" height="608" viewBox="0 0 1200 608" fill="none" xmlns="http://www.w3.org/2000/svg">
<g id="grafico-olas" clip-path="url(#clip0_656_11191)">
<g id="grupo-ola09">
<path id="ola-09" d="M2.14504e-07 576.365L115.233 600.603C137.872 605.365 161.424 603.11 182.748 594.14L255.896 563.368C284.102 551.503 315.898 551.503 344.104 563.368L405.896 589.363C434.102 601.228 465.898 601.228 494.104 589.363L555.896 563.368C584.102 551.503 615.898 551.503 644.104 563.368L705.896 589.363C734.102 601.228 765.898 601.228 794.104 589.363L855.896 563.368C884.102 551.503 915.898 551.503 944.104 563.368L1017.25 594.14C1038.58 603.11 1062.13 605.365 1084.77 600.603L1200 576.365" stroke="#D9E2E6" stroke-width="12"/>
</g>
<g id="grupo-ola08">
<path id="ola-08" d="M2.14504e-07 508.263L115.233 532.501C137.872 537.263 161.424 535.009 182.748 526.038L255.896 495.266C284.102 483.401 315.898 483.401 344.104 495.266L405.896 521.261C434.102 533.126 465.898 533.126 494.104 521.261L555.896 495.266C584.102 483.401 615.898 483.401 644.104 495.266L705.896 521.261C734.102 533.126 765.898 533.126 794.104 521.261L855.896 495.266C884.102 483.401 915.898 483.401 944.104 495.266L1017.25 526.038C1038.58 535.008 1062.13 537.263 1084.77 532.501L1200 508.263" stroke="#D9E2E6" stroke-width="12"/>
</g>
<g id="grupo-ola07">
<path id="ola-07" d="M2.14504e-07 440.162L115.233 464.4C137.872 469.162 161.424 466.907 182.748 457.936L255.896 427.164C284.102 415.299 315.898 415.299 344.104 427.164L405.896 453.159C434.102 465.024 465.898 465.024 494.104 453.159L555.896 427.164C584.102 415.299 615.898 415.299 644.104 427.164L705.896 453.159C734.102 465.024 765.898 465.024 794.104 453.159L855.896 427.164C884.102 415.299 915.898 415.299 944.104 427.164L1017.25 457.936C1038.58 466.907 1062.13 469.162 1084.77 464.4L1200 440.162" stroke="#D9E2E6" stroke-width="12"/>
</g>
<g id="grupo-ola06">
<path id="ola-06" d="M2.14504e-07 372.06L115.233 396.298C137.872 401.06 161.424 398.805 182.748 389.834L255.896 359.063C284.102 347.197 315.898 347.197 344.104 359.063L405.896 385.057C434.102 396.923 465.898 396.923 494.104 385.057L555.896 359.063C584.102 347.197 615.898 347.197 644.104 359.063L705.896 385.057C734.102 396.923 765.898 396.923 794.104 385.057L855.896 359.063C884.102 347.197 915.898 347.197 944.104 359.063L1017.25 389.834C1038.58 398.805 1062.13 401.06 1084.77 396.298L1200 372.06" stroke="#D9E2E6" stroke-width="12"/>
</g>
<g id="grupo-ola05">
<path id="ola-05" d="M2.14504e-07 303.958L115.233 328.196C137.872 332.958 161.424 330.703 182.748 321.733L255.896 290.961C284.102 279.095 315.898 279.095 344.104 290.961L405.896 316.955C434.102 328.821 465.898 328.821 494.104 316.955L555.896 290.961C584.102 279.095 615.898 279.095 644.104 290.961L705.896 316.955C734.102 328.821 765.898 328.821 794.104 316.955L855.896 290.961C884.102 279.095 915.898 279.095 944.104 290.961L1017.25 321.733C1038.58 330.703 1062.13 332.958 1084.77 328.196L1200 303.958" stroke="#D9E2E6" stroke-width="12"/>
</g>
<g id="grupo-ola04">
<path id="ola-04" d="M2.14504e-07 235.856L115.233 260.094C137.872 264.856 161.424 262.601 182.748 253.631L255.896 222.859C284.102 210.994 315.898 210.994 344.104 222.859L405.896 248.854C434.102 260.719 465.898 260.719 494.104 248.854L555.896 222.859C584.102 210.994 615.898 210.994 644.104 222.859L705.896 248.854C734.102 260.719 765.898 260.719 794.104 248.854L855.896 222.859C884.102 210.994 915.898 210.994 944.104 222.859L1017.25 253.631C1038.58 262.601 1062.13 264.856 1084.77 260.094L1200 235.856" stroke="#D9E2E6" stroke-width="12"/>
</g>
<g id="grupo-ola03">
<path id="ola-03" d="M2.14504e-07 167.755L115.233 191.992C137.872 196.754 161.424 194.5 182.748 185.529L255.896 154.757C284.102 142.892 315.898 142.892 344.104 154.757L405.896 180.752C434.102 192.617 465.898 192.617 494.104 180.752L555.896 154.757C584.102 142.892 615.898 142.892 644.104 154.757L705.896 180.752C734.102 192.617 765.898 192.617 794.104 180.752L855.896 154.757C884.102 142.892 915.898 142.892 944.104 154.757L1017.25 185.529C1038.58 194.5 1062.13 196.754 1084.77 191.992L1200 167.754" stroke="#D9E2E6" stroke-width="12"/>
</g>
<g id="grupo-ola02">
<path id="ola-02" d="M2.14504e-07 99.6527L115.233 123.891C137.872 128.653 161.424 126.398 182.748 117.427L255.896 86.6554C284.102 74.7899 315.898 74.7899 344.104 86.6554L405.896 112.65C434.102 124.515 465.898 124.515 494.104 112.65L555.896 86.6554C584.102 74.7899 615.898 74.7899 644.104 86.6554L705.896 112.65C734.102 124.515 765.898 124.515 794.104 112.65L855.896 86.6554C884.102 74.7899 915.898 74.7899 944.104 86.6554L1017.25 117.427C1038.58 126.398 1062.13 128.653 1084.77 123.891L1200 99.6527" stroke="#D9E2E6" stroke-width="12"/>
</g>
<g id="grupo-ola01">
<path id="ola-01" d="M2.14504e-07 31.5509L115.233 55.7889C137.872 60.5507 161.424 58.2959 182.748 49.3253L255.896 18.5536C284.102 6.68811 315.898 6.68811 344.104 18.5536L405.896 44.5482C434.102 56.4137 465.898 56.4137 494.104 44.5482L555.896 18.5536C584.102 6.68811 615.898 6.68811 644.104 18.5536L705.896 44.5482C734.102 56.4137 765.898 56.4137 794.104 44.5482L855.896 18.5536C884.102 6.6881 915.898 6.6881 944.104 18.5536L1017.25 49.3253C1038.58 58.2959 1062.13 60.5507 1084.77 55.7889L1200 31.5509" stroke="#D9E2E6" stroke-width="12"/>
</g>
</g>
<defs>
<clipPath id="clip0_656_11191">
<rect width="1200" height="607.916" fill="white"/>
</clipPath>
</defs>
</svg>
