<svg width="301" height="152" viewBox="0 0 301 152" fill="none" xmlns="http://www.w3.org/2000/svg">
<path d="M40.4399 69.349V58.6368H84.2999V69.349H40.4399Z" fill="#E5BF7E"/>
<path d="M31.6601 38.5716L24.0801 30.9972L55.1001 0L62.6801 7.57443L31.6601 38.5716Z" fill="#E5BF7E"/>
<path d="M0 107.221H10.72V151.049H0V107.221Z" fill="#E5BF7E"/>
<path d="M23.6602 96.8088L31.2402 89.2344L62.2602 120.232L54.6802 127.806L23.6602 96.8088Z" fill="#E5BF7E"/>
<path d="M0 38.9314V89.6341C14.02 89.6341 25.38 78.2825 25.38 64.2728C25.38 50.2831 14.02 38.9314 0 38.9314Z" fill="#E5BF7E"/>
<path d="M115.12 61.1751V4.09705H131.26C134.4 4.09705 137.26 4.51674 139.84 5.35612C142.42 6.1955 144.62 7.39462 146.42 8.95348C148.22 10.5123 149.62 12.4509 150.62 14.7492C151.62 17.0475 152.1 19.6256 152.1 22.5035C152.1 24.8018 151.76 27.0801 151.08 29.3585C150.4 31.6368 149.28 33.6753 147.74 35.474C146.2 37.2727 144.2 38.7316 141.74 39.8508C139.28 40.9699 136.26 41.5295 132.64 41.5295H124.64V61.1951H115.12V61.1751ZM124.68 32.5162H132.36C134.34 32.5162 135.98 32.1764 137.3 31.4969C138.6 30.8174 139.66 29.978 140.44 28.9588C141.22 27.9395 141.78 26.8803 142.08 25.7411C142.4 24.622 142.54 23.6227 142.54 22.7234C142.54 21.884 142.4 20.9047 142.1 19.7855C141.82 18.6663 141.28 17.6071 140.54 16.6078C139.78 15.6086 138.74 14.7892 137.44 14.1097C136.14 13.4302 134.46 13.0904 132.42 13.0904H124.66V32.5162H124.68Z" fill="#E5BF7E"/>
<path d="M156.36 44.887C156.36 42.4888 156.82 40.2105 157.76 38.0321C158.7 35.8737 159.96 33.9751 161.56 32.3563C163.16 30.7374 165 29.4384 167.12 28.4791C169.24 27.5198 171.48 27.0402 173.82 27.0402C175.38 27.0402 176.8 27.24 178.06 27.6197C179.32 28.0194 180.4 28.4791 181.32 28.9987C182.24 29.5183 182.96 30.0579 183.48 30.5975C184 31.1371 184.34 31.5768 184.5 31.8966L184.82 27.8995H192.1V61.1751H184.5V58.9767C184.5 58.7169 184.52 58.477 184.54 58.2372C184.56 57.9974 184.58 57.8375 184.58 57.7376C184.38 57.9974 184 58.3771 183.48 58.8768C182.96 59.3764 182.26 59.856 181.36 60.3157C180.48 60.7754 179.42 61.195 178.18 61.5348C176.96 61.8745 175.52 62.0344 173.9 62.0344C171.34 62.0344 168.98 61.5748 166.84 60.6155C164.7 59.6762 162.84 58.4171 161.28 56.8582C159.72 55.2994 158.5 53.4807 157.64 51.4222C156.78 49.3637 156.36 47.1854 156.36 44.887ZM163.96 44.4274C163.96 45.8863 164.2 47.2453 164.7 48.5044C165.2 49.7635 165.9 50.8427 166.82 51.762C167.74 52.6813 168.82 53.4008 170.08 53.9204C171.34 54.44 172.72 54.6998 174.24 54.6998C175.76 54.6998 177.14 54.44 178.4 53.9204C179.66 53.4008 180.74 52.6613 181.66 51.722C182.58 50.7827 183.28 49.6835 183.78 48.4244C184.28 47.1654 184.52 45.8463 184.52 44.4274C184.52 43.0084 184.28 41.7094 183.78 40.4703C183.28 39.2512 182.58 38.192 181.66 37.2926C180.74 36.4133 179.66 35.6938 178.4 35.1742C177.14 34.6546 175.76 34.3948 174.24 34.3948C172.72 34.3948 171.34 34.6346 170.08 35.1342C168.82 35.6338 167.74 36.3333 166.82 37.2527C165.9 38.172 165.2 39.2312 164.7 40.4703C164.2 41.6894 163.96 43.0084 163.96 44.4274Z" fill="#E5BF7E"/>
<path d="M238.96 44.6472C238.96 47.1454 238.54 49.4637 237.7 51.5821C236.86 53.7006 235.68 55.5392 234.14 57.0981C232.6 58.6569 230.76 59.876 228.62 60.7354C226.48 61.5947 224.12 62.0344 221.56 62.0344C219 62.0344 216.74 61.5548 214.78 60.5955C212.82 59.6362 211.48 58.597 210.74 57.4978C210.74 57.6976 210.76 57.8975 210.78 58.0773C210.8 58.2572 210.82 58.477 210.82 58.7368V61.1551H203.3V0.0200195H210.82V32.1364C211.24 31.6168 211.78 31.0572 212.42 30.4576C213.08 29.8581 213.86 29.3185 214.8 28.8188C215.74 28.3192 216.8 27.8995 217.98 27.5598C219.16 27.22 220.44 27.0601 221.86 27.0601C224.42 27.0601 226.74 27.4598 228.84 28.2792C230.92 29.0986 232.72 30.2578 234.2 31.7967C235.7 33.3355 236.86 35.1942 237.68 37.3526C238.54 39.511 238.96 41.9492 238.96 44.6472ZM230.8 44.5073C230.8 41.5895 229.96 39.1712 228.26 37.2726C226.56 35.374 224.2 34.4147 221.16 34.4147C219.64 34.4147 218.26 34.6546 217 35.1542C215.74 35.6538 214.66 36.3533 213.74 37.2726C212.82 38.192 212.1 39.2512 211.58 40.4903C211.06 41.7294 210.8 43.0284 210.8 44.4474C210.8 45.9063 211.06 47.2653 211.58 48.5244C212.1 49.7834 212.82 50.8626 213.74 51.782C214.66 52.7013 215.74 53.4208 217 53.9404C218.26 54.46 219.64 54.7198 221.16 54.7198C222.68 54.7198 224.04 54.46 225.24 53.9404C226.44 53.4208 227.44 52.6813 228.26 51.742C229.08 50.8027 229.7 49.7235 230.14 48.4844C230.58 47.2253 230.8 45.9063 230.8 44.5073Z" fill="#E5BF7E"/>
<path d="M255.64 61.1751H248.2V0.0200195H255.64V61.1751Z" fill="#E5BF7E"/>
<path d="M264.74 44.5073C264.74 42.1091 265.2 39.8508 266.12 37.7323C267.04 35.6139 268.3 33.7752 269.92 32.2164C271.54 30.6575 273.44 29.4184 275.6 28.4991C277.76 27.5798 280.08 27.1201 282.54 27.1201C285.04 27.1201 287.38 27.5798 289.52 28.4991C291.66 29.4184 293.5 30.6575 295.04 32.2164C296.58 33.7752 297.8 35.6139 298.68 37.7323C299.56 39.8508 300.02 42.1091 300.02 44.5073C300.02 46.9056 299.58 49.1839 298.72 51.3223C297.86 53.4608 296.64 55.3194 295.08 56.9182C293.52 58.517 291.66 59.7561 289.52 60.6754C287.38 61.5948 285.02 62.0544 282.46 62.0544C280 62.0544 277.7 61.6347 275.56 60.7954C273.42 59.956 271.54 58.7768 269.96 57.238C268.36 55.6991 267.1 53.8405 266.16 51.6821C265.2 49.5037 264.74 47.1054 264.74 44.5073ZM272.18 44.5873C272.18 46.0062 272.44 47.3253 272.96 48.5444C273.48 49.7635 274.2 50.8427 275.12 51.762C276.04 52.6813 277.1 53.4008 278.34 53.9204C279.56 54.44 280.88 54.6998 282.3 54.6998C283.7 54.6998 285.02 54.44 286.26 53.9204C287.48 53.4008 288.56 52.6813 289.48 51.762C290.4 50.8427 291.12 49.7835 291.68 48.5444C292.22 47.3253 292.5 46.0062 292.5 44.5873C292.5 43.1683 292.22 41.8693 291.68 40.6302C291.14 39.4111 290.4 38.3319 289.48 37.4126C288.56 36.4932 287.5 35.7738 286.26 35.2142C285.04 34.6746 283.72 34.3948 282.3 34.3948C280.88 34.3948 279.56 34.6746 278.34 35.2142C277.12 35.7538 276.04 36.4932 275.12 37.4126C274.2 38.3319 273.48 39.3911 272.96 40.6302C272.44 41.8493 272.18 43.1683 272.18 44.5873Z" fill="#E5BF7E"/>
<path d="M115.12 148.631V91.5327H153.06V100.226H124.68V115.575H149.92V124.508H124.68V139.697H154.14V148.631H115.12Z" fill="#E5BF7E"/>
<path d="M172.66 148.631H165.2V87.4757H172.64V148.631H172.66Z" fill="#E5BF7E"/>
<path d="M183 102.425C183 101.066 183.5 99.9466 184.48 99.0473C185.48 98.1679 186.54 97.7083 187.7 97.7083C188.84 97.7083 189.9 98.1479 190.88 99.0473C191.84 99.9266 192.32 101.066 192.32 102.425C192.32 103.844 191.84 104.963 190.88 105.822C189.92 106.682 188.86 107.121 187.7 107.121C186.56 107.121 185.48 106.682 184.48 105.822C183.5 104.963 183 103.844 183 102.425ZM191.38 148.631H183.86V115.355H191.38V148.631Z" fill="#E5BF7E"/>
<path d="M224.84 139.937C225.62 140.936 226.38 141.876 227.12 142.795C227.86 143.714 228.6 144.634 229.4 145.573C227.88 146.772 226.18 147.731 224.3 148.431C222.42 149.13 220.4 149.49 218.26 149.49C215.8 149.49 213.5 149.03 211.32 148.111C209.16 147.192 207.28 145.953 205.68 144.354C204.08 142.755 202.82 140.896 201.88 138.758C200.94 136.62 200.48 134.341 200.48 131.943C200.48 129.545 200.94 127.286 201.88 125.168C202.82 123.05 204.08 121.211 205.68 119.612C207.28 118.013 209.16 116.774 211.32 115.855C213.48 114.935 215.8 114.476 218.26 114.476C220.46 114.476 222.5 114.836 224.42 115.535C226.32 116.235 228.06 117.194 229.64 118.393L224.86 123.949C223.02 122.53 220.84 121.83 218.28 121.83C216.76 121.83 215.38 122.09 214.12 122.61C212.86 123.129 211.78 123.829 210.86 124.728C209.94 125.608 209.24 126.667 208.74 127.906C208.24 129.125 208 130.484 208 131.943C208 133.362 208.24 134.681 208.74 135.9C209.24 137.119 209.94 138.218 210.86 139.158C211.78 140.097 212.86 140.836 214.12 141.356C215.38 141.876 216.76 142.135 218.28 142.135C220.88 142.135 223.06 141.396 224.84 139.937Z" fill="#E5BF7E"/>
<path d="M265.28 144.794C263.66 146.252 261.7 147.412 259.4 148.231C257.1 149.07 254.76 149.49 252.34 149.49C249.88 149.49 247.58 149.03 245.4 148.111C243.24 147.192 241.36 145.953 239.76 144.354C238.16 142.755 236.9 140.916 235.96 138.798C235.02 136.68 234.54 134.421 234.54 132.023C234.54 129.625 235 127.366 235.96 125.248C236.9 123.129 238.16 121.291 239.76 119.692C241.36 118.093 243.2 116.854 245.32 115.935C247.44 115.015 249.68 114.556 252.02 114.556C255.78 114.556 259.08 115.695 261.94 117.953C264.78 120.232 266.82 123.209 268.02 126.927C266.46 127.506 264.64 128.186 262.58 129.005C260.52 129.825 258.36 130.664 256.12 131.543C253.88 132.423 251.62 133.342 249.38 134.241C247.14 135.161 245.06 135.98 243.18 136.7C244.06 138.318 245.3 139.617 246.86 140.617C248.42 141.616 250.2 142.096 252.18 142.096C253.54 142.096 254.92 141.856 256.3 141.356C257.68 140.856 258.82 140.197 259.7 139.358L265.28 144.794ZM258.7 125.208C258.08 124.069 257.14 123.209 255.88 122.67C254.62 122.13 253.4 121.85 252.2 121.85C250.78 121.85 249.46 122.13 248.2 122.67C246.94 123.209 245.88 123.949 244.98 124.868C244.1 125.788 243.38 126.827 242.86 128.006C242.34 129.185 242.08 130.384 242.08 131.643V131.963C243.38 131.443 244.78 130.884 246.28 130.284C247.76 129.685 249.26 129.065 250.74 128.446C252.22 127.826 253.66 127.226 255.02 126.687C256.38 126.107 257.6 125.628 258.7 125.208Z" fill="#E5BF7E"/>
<path d="M294.74 118.313C294.42 118.793 294.04 119.312 293.6 119.912C293.16 120.511 292.72 121.071 292.3 121.591C291.88 122.11 291.38 122.77 290.82 123.549C290.3 123.189 289.78 122.89 289.3 122.69C288.8 122.49 288.22 122.29 287.58 122.11C286.92 121.93 286.26 121.83 285.58 121.83C284.84 121.83 284.08 122.01 283.26 122.33C282.44 122.67 282.04 123.369 282.04 124.409C282.04 125.288 282.4 126.047 283.1 126.647C283.8 127.246 284.66 127.786 285.68 128.286C286.7 128.785 287.82 129.285 289.06 129.805C290.28 130.324 291.42 130.984 292.44 131.763C293.46 132.543 294.32 133.522 295.02 134.701C295.72 135.88 296.08 137.319 296.08 139.038C296.08 140.557 295.8 141.936 295.26 143.195C294.72 144.454 293.92 145.513 292.9 146.412C291.88 147.292 290.66 148.011 289.26 148.531C287.86 149.05 286.26 149.31 284.48 149.31C282.34 149.31 280.26 148.951 278.24 148.211C276.22 147.472 274.64 146.432 273.5 145.073C273.86 144.654 274.32 144.134 274.84 143.515C275.36 142.895 275.86 142.295 276.32 141.716C276.8 141.136 277.36 140.457 278.04 139.677C278.04 139.617 278.2 139.717 278.54 139.957C278.88 140.197 279.34 140.457 279.92 140.777C280.5 141.096 281.18 141.376 281.96 141.636C282.74 141.896 283.56 142.036 284.38 142.036C285.68 142.036 286.7 141.756 287.4 141.176C288.1 140.597 288.46 139.897 288.46 139.058C288.46 138.218 288.1 137.539 287.4 137.019C286.7 136.5 285.84 136.02 284.82 135.58C283.8 135.141 282.68 134.661 281.44 134.141C280.22 133.622 279.08 132.962 278.08 132.183C277.06 131.403 276.2 130.404 275.5 129.165C274.8 127.946 274.44 126.387 274.44 124.509C274.44 122.63 274.78 121.071 275.46 119.812C276.14 118.553 277.02 117.534 278.08 116.754C279.14 115.975 280.32 115.415 281.56 115.075C282.82 114.736 284.04 114.576 285.24 114.576C286.86 114.576 288.54 114.896 290.3 115.555C292.06 116.195 293.54 117.114 294.74 118.313Z" fill="#E5BF7E"/>
</svg>
